<?xml version="1.0" encoding="UTF-8" standalone="no"?>
<!-- Created with Inkscape (http://www.inkscape.org/) -->

<svg
   xmlns:dc="http://purl.org/dc/elements/1.1/"
   xmlns:cc="http://creativecommons.org/ns#"
   xmlns:rdf="http://www.w3.org/1999/02/22-rdf-syntax-ns#"
   xmlns:svg="http://www.w3.org/2000/svg"
   xmlns="http://www.w3.org/2000/svg"
   xmlns:sodipodi="http://sodipodi.sourceforge.net/DTD/sodipodi-0.dtd"
   xmlns:inkscape="http://www.inkscape.org/namespaces/inkscape"
   width="141.11111mm"
   height="141.11111mm"
   viewBox="0 0 500.00001 500.00001"
   id="svg4226"
   version="1.1"
   inkscape:version="0.91 r"
   sodipodi:docname="1463359896_facebook.svg">
  <defs
     id="defs4228" />
  <sodipodi:namedview
     id="base"
     pagecolor="#ffffff"
     bordercolor="#666666"
     borderopacity="1.0"
     inkscape:pageopacity="0.0"
     inkscape:pageshadow="2"
     inkscape:zoom="0.35"
     inkscape:cx="347.85714"
     inkscape:cy="135.71429"
     inkscape:document-units="px"
     inkscape:current-layer="layer1"
     showgrid="false"
     fit-margin-top="0"
     fit-margin-left="0"
     fit-margin-right="0"
     fit-margin-bottom="0"
     inkscape:window-width="1680"
     inkscape:window-height="968"
     inkscape:window-x="0"
     inkscape:window-y="0"
     inkscape:window-maximized="1" />
  <metadata
     id="metadata4231">
    <rdf:RDF>
      <cc:Work
         rdf:about="">
        <dc:format>image/svg+xml</dc:format>
        <dc:type
           rdf:resource="http://purl.org/dc/dcmitype/StillImage" />
        <dc:title></dc:title>
      </cc:Work>
    </rdf:RDF>
  </metadata>
  <g
     inkscape:label="Vrstva 1"
     inkscape:groupmode="layer"
     id="layer1"
     transform="translate(-27.142857,-168.07649)">
    <path
       style="fill:#bb9f55;fill-opacity:1;stroke:none"
       id="rect2986"
       d="m 77.142857,168.07649 c -27.7,0 -50,22.3 -50,50 l 0,400 c 0,27.7 22.3,50 50,50 l 400.000003,0 c 27.7,0 50,-22.3 50,-50 l 0,-400 c 0,-27.7 -22.3,-50 -50,-50 l -400.000003,0 z m 237.875003,90.03125 48.9375,0 0,56.0625 -29.34375,0 c -23.3813,0 -26.6875,7.62535 -26.6875,22.6875 l 0,33.34375 56.03125,0 -6.65625,56.0625 -49.375,0 0,168.125 -72.6875,0 0,-168.125 -39.40625,0 0,-56.0625 39.40625,0 0,-37.375 c 0,-47.20056 19.79545,-74.71875 79.78125,-74.71875 z"
       inkscape:connector-curvature="0" />
  </g>
</svg>
