<?xml version="1.0" encoding="iso-8859-1"?><!-- Generator: Adobe Illustrator 16.0.0, SVG Export Plug-In . SVG Version: 6.00 Build 0) --><!DOCTYPE svg PUBLIC "-//W3C//DTD SVG 1.1//EN" "http://www.w3.org/Graphics/SVG/1.1/DTD/svg11.dtd"><svg version="1.1" id="Layer_2" xmlns="http://www.w3.org/2000/svg" xmlns:xlink="http://www.w3.org/1999/xlink" x="0px" y="0px" width="406.065px" height="406.065px" viewBox="0 0 406.065 406.065" style="enable-background:new 0 0 406.065 406.065;" xml:space="preserve"><g><linearGradient id="SVGID_1_" gradientUnits="userSpaceOnUse" x1="-1383.6892" y1="1177.1035" x2="-1382.6892" y2="1177.1035" gradientTransform="matrix(167.1538 220.4346 -220.4346 167.1538 490897.1562 108379.0625)"><stop offset="0" style="stop-color:#455E9B"/><stop offset="1" style="stop-color:#5A70B3"/></linearGradient><path style="fill:url(#SVGID_1_);" d="M22.969,144.483v177.765c0,33.643,27.208,60.852,60.847,60.852H322.25	c33.641,0,60.848-27.209,60.848-60.852V145.105c-51.462,13.454-112.911,21.27-178.885,21.27	C137.206,166.375,74.899,158.317,22.969,144.483 M0.055,70.038C0.019,70.981,0,71.931,0,72.882v260.303	c0,40.172,32.708,72.881,72.888,72.881H333.18c40.179,0,72.885-32.709,72.885-72.881V72.882c0-0.49-0.005-0.983-0.015-1.471v67.114	c-3.06,0.958-6.164,1.897-9.309,2.813v185.867c0,38.336-31.204,69.541-69.539,69.541H78.862c-38.334,0-69.54-31.205-69.54-69.541	v-186.56c-3.146-0.934-6.25-1.89-9.308-2.866V72.473C0.015,71.659,0.028,70.846,0.055,70.038"/><path style="fill:#8091C1;" d="M22.969,83.728c0-33.553,27.208-60.845,60.847-60.845H322.25c33.641,0,60.848,27.292,60.848,60.845	v238.521c0,33.643-27.207,60.852-60.848,60.852H83.815c-33.639,0-60.847-27.209-60.847-60.852L22.969,83.728 M9.322,78.86v248.345	c0,38.336,31.206,69.541,69.54,69.541h248.341c38.335,0,69.539-31.205,69.539-69.541V78.86c0-38.332-31.204-69.538-69.539-69.538	H78.862C40.528,9.322,9.322,40.528,9.322,78.86"/><path style="fill:#D6DDF0;" d="M336.51,0H68.783c-1.8,0-3.578,0.091-5.345,0.226C28.502,4.782,1.239,34.169,0.055,70.038	C1.554,31.175,33.66,0,72.887,0H333.18c39.688,0,72.085,31.912,72.87,71.411V71.27c-0.587-35.795-27.114-65.417-61.567-70.8	C341.865,0.17,339.208,0,336.51,0"/><linearGradient id="SVGID_2_" gradientUnits="userSpaceOnUse" x1="-1383.6892" y1="1176.8379" x2="-1382.6892" y2="1176.8379" gradientTransform="matrix(167.1538 220.4346 -220.4346 167.1538 490897.1562 108379.0625)"><stop offset="0" style="stop-color:#697BB0"/><stop offset="1" style="stop-color:#7688C2"/></linearGradient><path style="fill:url(#SVGID_2_);" d="M322.249,22.882H83.815c-33.639,0-60.847,27.292-60.847,60.845v60.755	c51.93,13.834,114.236,21.892,181.242,21.892c65.974,0,127.423-7.816,178.885-21.27V83.728	C383.096,50.175,355.889,22.882,322.249,22.882 M333.18,0H72.887C33.66,0,1.554,31.175,0.055,70.038	c-0.026,0.808-0.04,1.621-0.04,2.435v65.305c3.058,0.977,6.162,1.933,9.308,2.866V78.86c0-38.332,31.206-69.538,69.54-69.538	h248.341c38.335,0,69.539,31.206,69.539,69.538v62.478c3.145-0.916,6.249-1.854,9.309-2.813V71.411	C405.265,31.912,372.868,0,333.18,0"/><path style="fill:#8D9FCB;" d="M327.203,9.322H78.862c-38.334,0-69.54,31.206-69.54,69.538v61.784	c4.465,1.325,9.013,2.604,13.646,3.838V83.728c0-33.553,27.208-60.845,60.847-60.845h238.434c33.641,0,60.848,27.292,60.848,60.845	v61.378c4.634-1.211,9.179-2.466,13.646-3.767V78.86C396.742,40.528,365.538,9.322,327.203,9.322"/><path style="fill:#FFFFFF;" d="M311.982,109.705h26.031v-52.68h-56.437c-34.275,0-62.062,27.786-62.062,62.062v31.515h-44.521	v52.681h44.521v162.21h69.238v-162.21h49.259v-52.681h-49.259V132.93C288.756,120.104,299.155,109.705,311.982,109.705z"/></g></svg>