<svg xmlns:dc="http://purl.org/dc/elements/1.1/" xmlns:cc="http://creativecommons.org/ns#" xmlns:rdf="http://www.w3.org/1999/02/22-rdf-syntax-ns#"  xmlns="http://www.w3.org/2000/svg" xmlns:sodipodi="http://sodipodi.sourceforge.net/DTD/sodipodi-0.dtd" xmlns:inkscape="http://www.inkscape.org/namespaces/inkscape" width="50px" height="50px" viewBox="0 0 500 500" id="svg2" version="1.1" inkscape:version="0.91 r" sodipodi:docname="1463359874_instagram.svg" xmlns:xlink="http://www.w3.org/1999/xlink" preserveAspectRatio="xMidYMid meet"><rect id="svgEditorBackground" x="0" y="0" width="500" height="500" style="fill: none; stroke: none;"/>
  <defs id="defs4"/>
  <sodipodi:namedview id="base" pagecolor="#ffffff" bordercolor="#666666" borderopacity="1.0" inkscape:pageopacity="0.0" inkscape:pageshadow="2" inkscape:zoom="0.7" inkscape:cx="88.27256" inkscape:cy="318.41216" inkscape:document-units="px" inkscape:current-layer="layer1" showgrid="false" inkscape:window-width="1680" inkscape:window-height="968" inkscape:window-x="0" inkscape:window-y="0" inkscape:window-maximized="1" fit-margin-top="0" fit-margin-left="0" fit-margin-right="0" fit-margin-bottom="0"/>
  <metadata id="metadata7">
    <rdf:RDF>
      <cc:Work rdf:about="">
        <dc:format>image/svg+xml</dc:format>
        <dc:type rdf:resource="http://purl.org/dc/dcmitype/StillImage"/>
        <dc:title/>
      </cc:Work>
    </rdf:RDF>
  </metadata>
  <g inkscape:label="Vrstva 1" inkscape:groupmode="layer" id="layer1" transform="translate(-109.99996,-170.93361)">
    <path inkscape:connector-curvature="0" d="m 159.99996,170.93361 c -27.7,0 -50,22.3 -50,50 l 0,400 c 0,27.7 22.3,50 50,50 l 400,0 c 27.7,0 50,-22.3 50,-50 l 0,-400 c 0,-27.7 -22.3,-50 -50,-50 l -400,0 z m 330.125,49.5 c 33.23503,-0.86637 68.125,33.00915 68.125,65.03125 0,13.21026 0.0447,40.54137 0.0625,61.96875 l -119.96875,0 11.71875,13.5 108.25,0 c 0.0553,62.34382 0.125,135.80946 0.125,190.09375 0,35.8284 -34.3316,68.15625 -69.28125,68.15625 -64.51671,0 -218.86005,0.1875 -262.9375,0.1875 -32.27955,0 -66.9375,-34.97045 -66.9375,-67.25 0,-31.35828 0.14952,-121.15047 0.25,-191.1875 l 108.21875,0 11.71875,-13.5 -119.9375,0 c 0.0296,-21.63845 0.0937,-53.40531 0.0937,-61.9375 0,-17.49561 11.78911,-36.64766 27.5625,-49.625 l 0,99.4375 77.90625,0 0,-114.75 c 65.2125,0.31149 185.44384,0.90699 225.03125,-0.125 z m -27.34375,27.625 c -6.06154,-0.003 -13.128,6.5322 -13.125,12.59375 0.008,16.85496 0,35.85525 0,51.375 0,6.06107 7.03267,12.627 13.09375,12.625 18.49004,-0.005 32.95877,0 50.3125,0 5.99445,0 12.78125,-6.63055 12.78125,-12.625 l 0,-51.375 c 0,-5.97983 -6.80143,-12.59375 -12.78125,-12.59375 -17.9587,0 -33.62978,0.01 -50.28125,0 z m -103.875,70.53125 c -56.55682,0 -102.40625,45.5447 -102.40625,101.71875 0,56.17404 45.84943,101.71875 102.40625,101.71875 56.55682,0 102.40625,-45.54471 102.40625,-101.71875 0,-56.17405 -45.84943,-101.71875 -102.40625,-101.71875 z m 0.0625,11.375 c 49.49905,0 89.625,40.13314 89.625,89.65625 0,49.52311 -40.12595,89.65625 -89.625,89.65625 -49.49905,0 -89.625,-40.13314 -89.625,-89.65625 0,-49.52311 40.12595,-89.65625 89.625,-89.65625 z m 0.84375,21.84375 c -36.90872,0 -66.84375,29.93503 -66.84375,66.84375 0,36.90872 29.93503,66.8125 66.84375,66.8125 36.90872,0 66.8125,-29.90378 66.8125,-66.8125 0,-36.90872 -29.90378,-66.84375 -66.8125,-66.84375 z" id="rect3824" style="opacity:1;fill:#bb9f55;fill-opacity:1;stroke:none"/>
  </g>
</svg>